<svg id="ghost_body" data-name="ghost body" xmlns="http://www.w3.org/2000/svg" viewBox="0 0 98.96 146.08"><defs><style>.cls-1{fill:#fff;}.cls-2{fill:#231f20;}.cls-3{fill:#eb008b;}.cls-4{fill:none;stroke:#231f20;stroke-linecap:round;stroke-linejoin:round;stroke-width:2px;}</style></defs><title>catghost-open</title><path class="cls-1" d="M98.9,133.73a12.36,12.36,0,1,1-24.73,0,12.36,12.36,0,1,1-24.73,0,12.36,12.36,0,1,1-24.73,0,12.36,12.36,0,1,1-24.73,0V53.5C0,25.62,14.85,0,49.46,0,82.85,0,98.94,18.85,98.94,53.5v80.24h0Z" transform="translate(0.02 -0.02)"/><circle class="cls-2" cx="29.84" cy="49.22" r="4"/><circle class="cls-2" cx="68.82" cy="49.22" r="4"/><path class="cls-3" d="M44.56,69.56c0,8.52,9.79,9.1,9.79,0L49.3,66Z" transform="translate(0.02 -0.02)"/><path class="cls-4" d="M37.15,63.83a6.17,6.17,0,0,0,12.33.5q0-.25,0-0.5a6.17,6.17,0,0,0,12.33,0" transform="translate(0.02 -0.02)"/></svg>