<svg id="Layer_2" data-name="Layer 2" xmlns="http://www.w3.org/2000/svg" viewBox="0 0 43.59 64.34"><defs><style>.cls-1{fill:#fff;}</style></defs><title>ghost</title><path class="cls-1" d="M39.46,7.83c-15.24,0-21.79,11.28-21.79,23.56V66.73a5.45,5.45,0,1,0,10.89,0,5.45,5.45,0,1,0,10.89,0,5.45,5.45,0,1,0,10.89,0,5.45,5.45,0,1,0,10.89,0h0V31.38C61.26,16.12,54.17,7.83,39.46,7.83Zm-11.86,38q-0.08-.16-0.08-4.93a2.28,2.28,0,0,0-.22-1.21,1.08,1.08,0,0,0-.88-0.32l-0.67,0v6.49H23.66V32h3.46a2.51,2.51,0,0,1,1.61.43,2.07,2.07,0,0,1,.7,1.21,10,10,0,0,1,.17,2,5.32,5.32,0,0,1-.27,1.91,1.48,1.48,0,0,1-1,.88,1.28,1.28,0,0,1,1,1A13.44,13.44,0,0,1,29.62,43a22.58,22.58,0,0,0,.08,2.84H27.6Zm8.65,0h-4.7V32h4.61v1.8H33.64v4H36v1.77H33.64V44h2.61v1.8ZM42.82,45a2.58,2.58,0,0,1-2.27.92,2.44,2.44,0,0,1-2.26-1,5.74,5.74,0,0,1-.64-3V40.7h2v1.38a4.62,4.62,0,0,0,.2,1.61,0.73,0.73,0,0,0,.73.46,0.7,0.7,0,0,0,.71-0.38,3.22,3.22,0,0,0,.18-1.25A3.43,3.43,0,0,0,41.14,41a5.36,5.36,0,0,0-1-1.35l-1-1A6.23,6.23,0,0,1,38,37.08a4.1,4.1,0,0,1-.39-1.84,4,4,0,0,1,.66-2.53,2.72,2.72,0,0,1,2.26-.83,2.3,2.3,0,0,1,2.17,1,5.65,5.65,0,0,1,.57,2.82v0.85H41.35v-1a4.27,4.27,0,0,0-.17-1.43,0.65,0.65,0,0,0-.66-0.43,0.78,0.78,0,0,0-.7.33,1.81,1.81,0,0,0-.21,1,2.14,2.14,0,0,0,.22,1,5.65,5.65,0,0,0,.79,1l1.13,1.23A7.23,7.23,0,0,1,43,40.11a4.89,4.89,0,0,1,.43,2.06A5,5,0,0,1,42.82,45Zm6.88,0.77H45V32H49.6v1.8H47.09v4h2.39v1.77H47.09V44H49.7v1.8Zm6-11.94H54.16V45.79H52.07V33.85H50.46V32h5.24v1.81Z" transform="translate(-17.67 -7.83)"/><path class="cls-1" d="M26.47,33.65H25.76v4H26.6a0.84,0.84,0,0,0,.59-0.18,1.08,1.08,0,0,0,.27-0.62,8.75,8.75,0,0,0,.07-1.34V35.45A3.61,3.61,0,0,0,27.34,34,0.91,0.91,0,0,0,26.47,33.65Z" transform="translate(-17.67 -7.83)"/></svg>