<svg id="Layer_3" data-name="Layer 3" xmlns="http://www.w3.org/2000/svg" viewBox="0 0 55.47 64.75"><defs><style>.cls-1{fill:#faa43d;}.cls-2{fill:#d28935;}.cls-3{fill:#00a14b;}.cls-4{fill:#7f682a;}</style></defs><title>orange</title><circle class="cls-1" cx="27.73" cy="37.01" r="27.73"/><circle class="cls-2" cx="16.55" cy="39.88" r="1.97" transform="translate(-15.98 -4.59) rotate(-8.19)"/><circle class="cls-2" cx="22.92" cy="30.36" r="1.97" transform="translate(-15.74 -2.52) rotate(-10.8)"/><circle class="cls-2" cx="27.62" cy="39.14" r="1.97" transform="translate(-17.31 -1.49) rotate(-10.8)"/><path class="cls-3" d="M38.26,20S31,25.17,23.59,23.62s-12-9.19-12-9.19,7.31-5.14,14.67-3.59S38.26,20,38.26,20Z" transform="translate(-10.46 -7.35)"/><path class="cls-4" d="M39.35,23.3h0a1.61,1.61,0,0,1-1.6-1.6s1-6.37,0-10.57c-0.2-.86-2.28-3.38-0.88-2.88s3.72-1.55,4.59-.66c1.92,2-.16,2.73-0.51,3.55-1.25,3,0,10.57,0,10.57A1.61,1.61,0,0,1,39.35,23.3Z" transform="translate(-10.46 -7.35)"/></svg>