<svg id="Layer_10" data-name="Layer 10" xmlns="http://www.w3.org/2000/svg" viewBox="0 0 114.03 146.09"><defs><style>.cls-1{fill:#e45d5a;}.cls-2,.cls-3,.cls-6{fill:none;stroke-linecap:round;}.cls-2{stroke:#cc4140;stroke-width:5px;}.cls-2,.cls-3{stroke-miterlimit:10;}.cls-3{stroke:#fff;stroke-width:8px;}.cls-4{fill:#231f20;}.cls-5{fill:#ec008c;}.cls-6{stroke:#231f20;stroke-linejoin:round;stroke-width:2px;}</style></defs><title>steakghost-open</title><path class="cls-1" d="M150.79,62.25c-1.63,13.33-23.58,109.91-76.57,99.58-18.6-3.63-8.36-36.23-13-49.46-4-11.44-17.55-33.6-21.34-45.91C31.54,39.29,41.57,16.5,91.63,16.5,139.62,16.5,154.35,33.15,150.79,62.25Z" transform="translate(-37.26 -16.5)"/><line class="cls-2" x1="66.6" y1="6.91" x2="16.1" y2="57.41"/><line class="cls-2" x1="90.08" y1="17.24" x2="25.83" y2="81.49"/><line class="cls-2" x1="101.59" y1="39.18" x2="37.35" y2="103.43"/><line class="cls-2" x1="96.46" y1="72.31" x2="39.89" y2="128.88"/><line class="cls-2" x1="46.39" y1="10.94" x2="96.7" y2="61.25"/><line class="cls-2" x1="21.53" y1="16.54" x2="93.42" y2="88.44"/><line class="cls-2" x1="8.73" y1="38.97" x2="80.63" y2="110.86"/><line class="cls-2" x1="28.66" y1="87.73" x2="69.35" y2="128.96"/><path class="cls-3" d="M57,48.67c7.15-5.43,22-8.47,37.28-8.39,13.83,0.07,28.05,2.69,37.39,8.39" transform="translate(-37.26 -16.5)"/><path class="cls-3" d="M91,135.33C109.34,78,94.28,40.28,94.28,40.28" transform="translate(-37.26 -16.5)"/><circle class="cls-4" cx="37.35" cy="57.24" r="4"/><circle class="cls-4" cx="76.33" cy="57.24" r="4"/><path class="cls-5" d="M89.38,95.56c0,8.52,9.79,9.1,9.79,0L94.12,92Z" transform="translate(-37.26 -16.5)"/><path class="cls-6" d="M81.95,88.33a6.17,6.17,0,1,0,12.33,0,6.17,6.17,0,0,0,12.33,0" transform="translate(-37.26 -16.5)"/></svg>