<svg id="ghost_body" data-name="ghost body" xmlns="http://www.w3.org/2000/svg" viewBox="0 0 98.97 146.09"><defs><style>.cls-1{fill:#fff;}.cls-2{fill:#231f20;}.cls-3{fill:none;stroke:#231f20;stroke-linecap:round;stroke-linejoin:round;stroke-width:2px;}</style></defs><title>catghost</title><path class="cls-1" d="M143.7,150.23a12.36,12.36,0,0,1-24.73,0,12.36,12.36,0,1,1-24.73,0,12.36,12.36,0,0,1-24.73,0,12.36,12.36,0,0,1-24.73,0V70c0-27.88,14.87-53.48,49.48-53.48,33.39,0,49.48,18.83,49.48,53.48v80.24H143.7Z" transform="translate(-44.8 -16.5)"/><circle class="cls-2" cx="29.82" cy="49.24" r="4"/><circle class="cls-2" cx="68.8" cy="49.24" r="4"/><path class="cls-3" d="M81.95,80.33a6.17,6.17,0,1,0,12.33,0,6.17,6.17,0,0,0,12.33,0" transform="translate(-44.8 -16.5)"/></svg>