<svg id="Layer_7" data-name="Layer 7" xmlns="http://www.w3.org/2000/svg" viewBox="0 0 170.99 112.83"><defs><style>.cls-1{fill:#ffe3ab;}.cls-2{fill:#f0b4d2;}.cls-3{fill:#a9dff3;}.cls-10,.cls-4,.cls-5,.cls-6,.cls-7,.cls-8{fill:none;stroke-linecap:round;}.cls-4{stroke:#fff;opacity:0.55;}.cls-4,.cls-5,.cls-6,.cls-7,.cls-8{stroke-miterlimit:10;stroke-width:4px;}.cls-5{stroke:#39b54a;}.cls-6{stroke:#00aeef;}.cls-7{stroke:#fff200;}.cls-8{stroke:#ec008c;}.cls-9{fill:#231f20;}.cls-10{stroke:#231f20;stroke-linejoin:round;stroke-width:2px;}</style></defs><title>donutghost</title><path class="cls-1" d="M180.5,80.33c0,35.46-36,54.67-80.5,54.67S19.5,117.67,19.5,80.33C19.5,40,49.33,25.67,100,25.67,144.46,25.67,180.5,40.33,180.5,80.33Z" transform="translate(-14.28 -22.17)"/><path class="cls-2" d="M184.5,69c-6.12-25.12-40-46.81-84.5-46.81S19.75,41.5,15.25,66.75C13.71,75.39,12.86,90.1,22,96.33c5.49,3.74,9.23-7.33,16.06-5.09,3.38,1.11,10.66,18,13.76,20.35,10.91,8.15,16.08-.83,22.77-2.35C84.5,107,86.45,120.79,100,120.79c10.1,0,16.6-10,25.5-12,6.45-1.43,13.87,4.92,19.83,5,13,0.17,11.89-20.45,16.67-23.17,8.67-4.93,10.09,4.22,15,2.75C185.29,90.94,186.33,76.5,184.5,69Zm-100.63.56,1.44,0.24c1.28,0.2,2.92.41,4.84,0.59l1.51,0.13-1.51-.13c-1.69-.15-3.31-0.35-4.84-0.59Zm14.65,1.2H98.28a94.71,94.71,0,0,0,15.56-1.33l0.41-.07-0.41.07A83.56,83.56,0,0,1,98.52,70.74Zm15.83-1.42A53.12,53.12,0,0,0,98.1,66.75a50.48,50.48,0,0,0-15.84,2.48c-7.05-1.46-11.65-3.85-11.65-6.54,0-4.45,12.5-8.05,27.91-8.05s27.91,3.61,27.91,8.05C126.43,65.44,121.64,67.87,114.35,69.32Z" transform="translate(-14.28 -22.17)"/><path class="cls-3" d="M114.35,69.32A92.55,92.55,0,0,1,98.1,70.74a80.22,80.22,0,0,1-15.85-1.51A50.48,50.48,0,0,1,98.1,66.75,53.12,53.12,0,0,1,114.35,69.32Z" transform="translate(-14.28 -22.17)"/><path class="cls-4" d="M24,78.33C22.57,60.16,41.23,38.49,69.57,34.16" transform="translate(-14.28 -22.17)"/><line class="cls-5" x1="122.45" y1="61.23" x2="129.38" y2="70.11"/><line class="cls-6" x1="128.35" y1="34.08" x2="123.47" y2="44.23"/><line class="cls-6" x1="45" y1="28.46" x2="44.31" y2="39.7"/><line class="cls-5" x1="67.66" y1="15.87" x2="73.81" y2="25.3"/><line class="cls-7" x1="114.47" y1="14.3" x2="103.31" y2="15.81"/><line class="cls-7" x1="49.69" y1="69.51" x2="38.53" y2="71.02"/><line class="cls-8" x1="155.75" y1="43.07" x2="144.59" y2="44.58"/><line class="cls-8" x1="29.07" y1="48.57" x2="24.19" y2="58.72"/><circle class="cls-9" cx="60.33" cy="59.57" r="4"/><circle class="cls-9" cx="99.31" cy="59.57" r="4"/><path class="cls-10" d="M81.95,96.33a6.17,6.17,0,1,0,12.33,0,6.17,6.17,0,0,0,12.33,0" transform="translate(-14.28 -22.17)"/></svg>