<svg id="Layer_9" data-name="Layer 9" xmlns="http://www.w3.org/2000/svg" viewBox="0 0 124.79 139.13"><defs><style>.cls-1{fill:#faa43d;}.cls-2{fill:#d28935;}.cls-10,.cls-3,.cls-7{fill:none;}.cls-3{stroke:#fdc374;stroke-width:4px;}.cls-10,.cls-3{stroke-linecap:round;}.cls-3,.cls-7{stroke-miterlimit:10;}.cls-4{fill:#00a14b;}.cls-5{fill:#7f682a;}.cls-6{fill:#fbbb8a;}.cls-7{stroke:#eb1d24;stroke-width:5px;}.cls-8{fill:#231f20;}.cls-9{fill:#ec008c;}.cls-10{stroke:#231f20;stroke-linejoin:round;stroke-width:2px;}</style></defs><title>orangeghost-open</title><circle class="cls-1" cx="54.95" cy="84.19" r="54.95"/><circle class="cls-2" cx="18.38" cy="56.55" r="2.06"/><circle class="cls-2" cx="65.74" cy="69.08" r="2.06" transform="translate(-42.4 -18.4) rotate(-2.6)"/><circle class="cls-2" cx="69.31" cy="78.9" r="2.06" transform="translate(-42.84 -18.23) rotate(-2.6)"/><path class="cls-3" d="M50.67,87.55c-7.33,18.1,2,51.45,31.28,62.12" transform="translate(-39.33 -21.46)"/><path class="cls-4" d="M92.62,53.18s-11.41,8-22.91,5.61S51,44.45,51,44.45s11.41-8,22.91-5.61S92.62,53.18,92.62,53.18Z" transform="translate(-39.33 -21.46)"/><path class="cls-5" d="M94.32,58.28h0a2.51,2.51,0,0,1-2.5-2.5s1.54-9.94,0-16.5c-0.31-1.34-3.55-5.27-1.37-4.5s5.81-2.42,7.17-1c3,3.05-.26,4.27-0.79,5.53-2,4.64,0,16.5,0,16.5A2.51,2.51,0,0,1,94.32,58.28Z" transform="translate(-39.33 -21.46)"/><ellipse class="cls-6" cx="114.85" cy="66.85" rx="2.3" ry="5.58" transform="translate(-25.26 132.01) rotate(-70.88)"/><polyline class="cls-7" points="75.52 46.04 89.05 13.86 92.42 13.43 91.26 7.37 95.26 7.37 95.26 2.71 124.59 5.04"/><circle class="cls-8" cx="35.28" cy="75.28" r="4"/><circle class="cls-8" cx="74.26" cy="75.28" r="4"/><path class="cls-9" d="M89.38,118.56c0,8.52,9.79,9.1,9.79,0L94.12,115Z" transform="translate(-39.33 -21.46)"/><path class="cls-10" d="M81.95,111.33a6.17,6.17,0,1,0,12.33,0,6.17,6.17,0,1,0,12.33,0" transform="translate(-39.33 -21.46)"/></svg>