<svg id="Layer_7" data-name="Layer 7" xmlns="http://www.w3.org/2000/svg" viewBox="0 0 71.5 154.09"><defs><style>.cls-1{fill:#f16165;}.cls-2{fill:#f3ad60;}.cls-3{fill:#f15925;}.cls-4{fill:#e41c3d;opacity:0.7;}.cls-5,.cls-6,.cls-8{fill:none;stroke-linecap:round;}.cls-5,.cls-6{stroke:#fff;stroke-width:3px;opacity:0.4;}.cls-5{stroke-miterlimit:10;}.cls-6,.cls-8{stroke-linejoin:round;}.cls-7{fill:#231f20;}.cls-8{stroke:#231f20;stroke-width:2px;}</style></defs><title>popghost</title><path class="cls-1" d="M129.29,118.86c0,5.72-4,10.36-8.91,10.36H66.91c-4.92,0-8.91-4.64-8.91-10.36V51.63c0-19-4.67-43.13,35.67-43.13,35.67,0,35.67,17.83,35.67,34.75v67.22Z" transform="translate(-57.84 -8.5)"/><rect class="cls-2" x="29.58" y="57.92" width="12.33" height="96.17" rx="6.17" ry="6.17"/><path class="cls-3" d="M87.42,129.25V72.42a6.18,6.18,0,0,1,6.17-6.17h0a6.18,6.18,0,0,1,6.17,6.17v56.83H87.42Z" transform="translate(-57.84 -8.5)"/><path class="cls-4" d="M81.61,121.33h0c-4.84,0-8.81-1.43-8.81-7.54V38.27c0-6.11,4-11.11,8.81-11.11h0c4.84,0,8.81,5,8.81,11.11V113.8C90.42,119.9,86.46,121.33,81.61,121.33Z" transform="translate(-57.84 -8.5)"/><path class="cls-4" d="M106.56,121.33h0c-4.84,0-8.81-1.43-8.81-7.54V38.27c0-6.11,4-11.11,8.81-11.11h0c4.84,0,8.81,5,8.81,11.11V113.8C115.36,119.9,111.4,121.33,106.56,121.33Z" transform="translate(-57.84 -8.5)"/><line class="cls-5" x1="5.83" y1="43.14" x2="5.83" y2="110.75"/><path class="cls-6" d="M67.36,37.74c0-3.45,3.25-10.25,6.25-10.25s6.25,6.8,6.25,10.25" transform="translate(-57.84 -8.5)"/><path class="cls-6" d="M108.34,37.74c0-3.45,3.25-10.25,6.25-10.25s6.25,6.8,6.25,10.25" transform="translate(-57.84 -8.5)"/><circle class="cls-7" cx="16.78" cy="57.24" r="4"/><circle class="cls-7" cx="55.76" cy="57.24" r="4"/><path class="cls-8" d="M81.95,80.33a6.17,6.17,0,1,0,12.33,0,6.17,6.17,0,0,0,12.33,0" transform="translate(-57.84 -8.5)"/></svg>