<svg id="Layer_4" data-name="Layer 4" xmlns="http://www.w3.org/2000/svg" viewBox="0 0 50.07 64.15"><defs><style>.cls-1{fill:#e45d5a;}.cls-2{fill:none;stroke:#fff;stroke-linecap:round;stroke-miterlimit:10;stroke-width:5px;}</style></defs><title>steak</title><path class="cls-1" d="M64.14,28c-0.72,5.85-10.35,48.26-33.62,43.72-8.17-1.59-3.67-15.91-5.7-21.72-1.76-5-7.71-14.76-9.37-20.16-3.67-11.93.73-21.93,22.71-21.93C59.24,7.92,65.7,15.23,64.14,28Z" transform="translate(-14.29 -7.92)"/><path class="cls-2" d="M23,22c3.14-2.38,9.65-3.72,16.37-3.68,6.07,0,12.32,1.18,16.42,3.68" transform="translate(-14.29 -7.92)"/><path class="cls-2" d="M37.89,60.1c8.05-25.18,1.44-41.74,1.44-41.74" transform="translate(-14.29 -7.92)"/></svg>