<svg id="bread" xmlns="http://www.w3.org/2000/svg" viewBox="0 0 151.35 159.09"><defs><style>.cls-1{fill:#fbecd0;stroke:#c49a6c;stroke-width:3px;}.cls-1,.cls-4{stroke-linejoin:round;}.cls-2{fill:#c49a6c;opacity:0.1;}.cls-3,.cls-4{fill:none;stroke:#231f20;stroke-linecap:round;stroke-width:2px;}.cls-3{stroke-miterlimit:10;}</style></defs><title>toastghost-blink</title><path class="cls-1" d="M32.1,46.5c-6.6,0-12-4-12-18,2.9-22,58.63-22,74.17-22s74.17-.12,74.17,24c0,9.75-5.4,16-12,16l-0.17,104.09a12,12,0,0,1-12,12h-100a12,12,0,0,1-12-12Z" transform="translate(-18.6 -5)"/><rect class="cls-2" x="19.73" y="14.54" width="34.43" height="134.13" rx="12" ry="12"/><rect class="cls-2" x="58.46" y="15.63" width="34.43" height="134.13" rx="12" ry="12"/><rect class="cls-2" x="97.19" y="15.63" width="34.43" height="134.13" rx="12" ry="12"/><path class="cls-3" d="M78.61,65.74a4,4,0,0,1-8,0" transform="translate(-18.6 -5)"/><path class="cls-3" d="M117.59,65.74a4,4,0,1,1-8,0" transform="translate(-18.6 -5)"/><path class="cls-4" d="M81.95,80.33a6.17,6.17,0,1,0,12.33,0,6.17,6.17,0,0,0,12.33,0" transform="translate(-18.6 -5)"/></svg>